<!--?xml version="1.0" standalone="no"?-->

<svg version="1.0" xmlns="http://www.w3.org/2000/svg" width="200.000000pt" height="300.000000pt" viewBox="0 0 200.000000 300.000000" preserveAspectRatio="xMidYMid meet">
<g transform="translate(0.000000,300.000000) scale(0.100000,-0.100000)" fill="#1E1E1E" stroke="none">
<path class="node" id="node1" d="M517 2936 c-21 -14 -40 -26 -43 -26 -19 0 -104 -45 -104 -55 0 -7 -6
-15 -13 -18 -19 -7 -47 -69 -47 -104 1 -15 7 -39 15 -53 12 -23 11 -27 -8 -48
-30 -32 -31 -117 -2 -138 11 -8 30 -12 42 -9 18 4 25 -2 41 -39 11 -24 25 -47
31 -50 15 -10 14 -36 -2 -36 -28 0 -194 -89 -228 -123 -47 -46 -77 -108 -85
-177 -3 -30 -17 -89 -32 -130 -34 -102 -34 -146 1 -198 28 -40 84 -72 127 -72
24 0 24 -6 5 -95 -34 -155 -36 -180 -19 -242 9 -32 16 -76 17 -98 0 -89 -13
-448 -18 -455 -2 -4 -4 -92 -4 -196 0 -216 0 -204 -7 -266 -5 -37 -1 -58 16
-93 24 -50 27 -51 210 -94 52 -12 119 -30 149 -39 51 -15 54 -15 67 3 12 16
18 17 39 7 35 -16 95 -15 138 3 76 31 59 93 -43 161 l-42 28 6 61 c3 33 15 98
25 145 11 47 29 159 41 250 12 91 28 215 36 275 7 61 18 174 24 252 6 78 13
148 16 157 3 8 47 38 98 66 l93 51 19 67 19 67 260 2 c143 1 262 -2 265 -7 3
-4 48 -5 100 -2 86 6 95 9 95 27 0 13 -8 21 -24 23 -22 3 -23 7 -16 45 4 23 6
76 5 119 0 42 3 79 8 82 5 3 7 58 4 123 -2 69 1 143 7 178 17 88 27 436 13
462 -15 28 -59 32 -322 34 -118 1 -267 5 -330 10 -156 10 -160 7 -160 -105 0
-45 -3 -138 -7 -204 l-6 -122 -56 0 c-31 0 -73 -4 -93 -9 -21 -5 -38 -7 -38
-5 0 3 12 28 27 57 23 45 28 67 31 159 3 85 7 105 18 101 8 -3 18 5 25 21 10
20 9 37 -5 83 -35 116 -32 112 -134 160 -125 58 -191 66 -245 29z m82 0 c-2
-2 -17 -6 -34 -10 -22 -5 -26 -4 -15 4 14 9 59 15 49 6z m-29 -64 c-21 -14
-43 -36 -49 -49 -6 -14 -17 -23 -23 -21 -25 9 -17 25 27 53 26 16 41 31 35 35
-6 4 3 7 19 7 l30 0 -39 -25z m150 24 c0 -2 -7 -7 -16 -10 -8 -3 -12 -2 -9 4
6 10 25 14 25 6z m-240 -31 c-23 -25 -40 -32 -40 -17 0 7 49 41 59 42 3 0 -6
-11 -19 -25z m170 21 c0 -2 -17 -15 -38 -30 -39 -27 -69 -35 -56 -15 14 23 94
62 94 45z m85 -26 c-3 -5 -15 -10 -26 -10 -11 0 -17 5 -14 10 3 6 15 10 26 10
11 0 17 -4 14 -10z m100 -10 c3 -5 1 -10 -4 -10 -6 0 -11 5 -11 10 0 6 2 10 4
10 3 0 8 -4 11 -10z m-7 -50 l16 -25 -29 25 c-17 14 -32 27 -35 29 -3 2 3 2
14 0 10 -2 26 -15 34 -29z m-82 -5 c18 -14 18 -14 -7 -15 -15 0 -32 7 -39 15
-10 12 -9 15 7 15 10 0 28 -7 39 -15z m-362 -9 c-21 -15 -30 -14 -19 3 3 6 14
11 23 11 13 0 13 -2 -4 -14z m201 -6 c3 -5 -1 -10 -9 -10 -8 0 -18 5 -21 10
-3 6 1 10 9 10 8 0 18 -4 21 -10z m-196 -27 c-13 -16 -25 -30 -26 -32 -2 -2
-3 1 -3 7 0 13 35 52 47 52 3 0 -4 -12 -18 -27z m86 -13 c-5 -16 -10 -19 -18
-11 -7 7 -6 15 3 26 17 20 24 13 15 -15z m141 16 c44 5 59 3 87 -15 19 -12 44
-21 56 -21 12 0 36 -10 54 -21 l32 -21 -5 -122 c-4 -108 -8 -126 -32 -167 -42
-71 -100 -119 -146 -119 -73 0 -205 100 -243 183 -22 50 -25 78 -5 71 10 -4
15 9 19 49 5 51 15 78 57 159 18 35 22 37 47 27 15 -5 50 -7 79 -3z m124 -1
c7 -8 8 -15 2 -15 -5 0 -15 7 -22 15 -7 8 -8 15 -2 15 5 0 15 -7 22 -15z
m-403 -17 c-3 -8 -6 -5 -6 6 -1 11 2 17 5 13 3 -3 4 -12 1 -19z m54 -39 c-5
-13 -10 -19 -10 -12 -1 15 10 45 15 40 3 -2 0 -15 -5 -28z m1294 -156 l-8 -38
-10 42 c-5 23 -6 59 -2 80 l8 38 10 -42 c5 -23 6 -59 2 -80z m-1347 50 c-7
-18 -8 -38 -3 -49 8 -16 9 -15 13 11 5 41 22 56 23 22 1 -15 2 -35 3 -44 2
-30 -42 -29 -56 2 -9 21 -8 32 6 62 20 42 31 40 14 -4z m1057 -68 c6 0 29 10
53 23 51 27 56 22 7 -7 -62 -36 -38 -51 40 -26 11 4 3 -4 -18 -16 -41 -25 -44
-46 -6 -41 19 2 21 0 11 -10 -19 -19 -14 -28 16 -29 24 -1 23 -2 -8 -8 -19 -4
-50 -15 -69 -24 -43 -21 -61 -22 -61 -1 0 9 -10 34 -22 55 -20 35 -20 40 -6
56 9 10 22 38 29 63 l13 45 5 -40 c4 -22 11 -40 16 -40z m-77 -93 c36 -79 31
-95 -64 -201 -2 -3 -11 4 -19 15 -14 18 -14 17 -15 -13 0 -32 -20 -57 -28 -35
-8 24 -24 12 -18 -13 4 -15 2 -25 -5 -25 -6 0 -13 9 -16 20 -9 32 -26 23 -20
-10 8 -39 -11 -49 -35 -19 l-20 24 6 -32 c3 -18 1 -35 -4 -38 -6 -3 -10 -2
-10 2 0 5 -7 18 -15 29 -15 18 -16 17 -10 -14 4 -20 2 -39 -5 -47 -19 -22 -27
-18 -34 16 -3 17 -10 28 -16 24 -5 -3 -7 -19 -3 -36 4 -23 0 -34 -19 -52 l-25
-24 -17 52 c-9 29 -25 60 -36 70 -20 18 -21 18 -51 -18 -29 -35 -32 -36 -77
-30 -26 3 -51 9 -55 13 -5 4 -1 30 9 59 l16 51 44 0 c57 0 75 27 44 67 -19 25
-20 27 -4 36 10 6 61 12 113 14 82 4 102 9 136 31 124 81 209 132 220 132 6 0
21 -22 33 -48z m352 -153 c0 -51 -4 -78 -10 -74 -5 3 -10 40 -10 81 0 43 4 74
10 74 6 0 10 -34 10 -81z m-1223 44 c-3 -5 3 -46 12 -93 19 -97 31 -106 84
-66 41 31 45 32 74 4 27 -26 34 -95 8 -84 -8 3 -21 9 -29 12 -14 5 -17 -1 -31
-86 -4 -19 -21 -52 -39 -72 l-33 -38 -39 21 c-21 11 -58 25 -82 31 -42 10 -42
11 -37 47 4 27 3 31 -4 16 -8 -17 -10 -17 -10 -3 -1 30 31 101 62 138 19 21
26 35 18 38 -7 2 -19 -4 -27 -14 -27 -34 -74 -119 -74 -133 0 -8 -6 -19 -14
-25 -15 -12 -50 -115 -42 -124 3 -3 17 7 32 23 23 25 30 27 70 21 24 -3 62
-15 83 -26 l39 -19 -40 -43 c-42 -45 -62 -83 -52 -99 8 -14 24 0 24 21 0 10 4
21 9 24 4 3 5 -13 0 -37 -4 -23 -8 -48 -9 -54 0 -7 -9 -13 -19 -13 -14 0 -18
6 -15 23 3 17 1 16 -8 -5 -9 -21 -19 -28 -40 -28 -26 0 -28 2 -18 20 8 16 8
20 -3 20 -8 0 -17 -9 -20 -20 -3 -11 -13 -20 -22 -20 -17 0 -17 18 2 66 4 11
3 15 -5 10 -6 -4 -14 -22 -18 -41 -4 -22 -12 -35 -21 -35 -13 0 -15 10 -11 50
3 28 2 50 -2 50 -11 0 -20 -27 -20 -61 0 -16 -5 -29 -11 -29 -7 0 -10 20 -7
55 3 52 -3 68 -17 44 -4 -6 -7 -26 -8 -44 0 -19 -5 -31 -10 -28 -4 3 -7 27 -6
54 4 62 -6 73 -16 17 -6 -35 -8 -39 -15 -23 -15 35 -10 89 10 123 11 17 24 32
30 32 5 0 10 4 10 10 0 5 -7 7 -15 4 -23 -9 -19 33 5 46 23 12 27 32 5 24 -32
-13 -8 33 30 55 18 11 17 12 -7 6 -36 -7 -35 0 5 38 l32 30 -28 -7 -28 -7 17
28 c34 55 45 62 75 56 34 -7 40 12 7 21 -22 5 -22 6 -4 19 11 8 28 12 38 9 14
-3 17 0 12 13 -6 14 -1 16 27 15 48 -3 57 0 34 11 -17 8 -16 9 8 5 21 -2 27 0
23 10 -6 16 10 19 19 4 3 -5 13 -10 22 -10 13 0 13 3 3 15 -10 13 -9 15 9 15
12 0 20 -3 18 -7z m94 -89 l23 -25 -29 -24 c-17 -13 -33 -24 -36 -25 -14 0
-34 132 -24 157 6 15 10 11 25 -20 9 -20 27 -49 41 -63z m266 3 c-1 -5 -6 -8
-10 -8 -4 1 -19 1 -33 1 l-25 0 18 30 18 30 17 -22 c10 -13 16 -27 15 -31z
m723 34 c-5 -11 -11 -32 -11 -48 -2 -22 -3 -19 -8 12 -8 46 -5 55 15 55 11 0
12 -4 4 -19z m-916 -15 c38 -17 60 -17 100 -1 16 7 17 6 7 -13 -18 -33 -98
-41 -137 -15 -13 9 -30 57 -18 51 5 -2 27 -12 48 -22z m706 10 c0 -2 -8 -10
-17 -17 -16 -13 -17 -12 -4 4 13 16 21 21 21 13z m-621 -106 c-13 -37 -18 -37
-47 1 l-24 29 41 0 40 0 -10 -30z m990 -56 c2 -1 -56 -4 -128 -6 -72 -2 -131
0 -131 4 0 4 19 8 43 10 45 3 210 -3 216 -8z m-1009 -14 c0 -5 -2 -10 -4 -10
-3 0 -8 5 -11 10 -3 6 -1 10 4 10 6 0 11 -4 11 -10z m220 -30 c11 -21 20 -42
20 -45 0 -4 -52 21 -89 42 -6 4 31 43 40 43 5 0 18 -18 29 -40z m-207 -36 c51
-25 116 -55 145 -66 28 -11 52 -24 52 -29 0 -19 -71 -263 -107 -370 l-36 -107
-31 11 c-74 26 -169 94 -161 115 4 11 0 13 -16 9 -16 -4 -19 -2 -14 10 3 9 0
20 -7 24 -7 4 -9 11 -5 15 4 4 13 2 19 -4 15 -15 45 -16 53 -2 3 5 1 18 -4 28
-8 15 -6 18 12 18 18 -1 22 4 20 27 -1 17 3 27 12 27 28 0 28 24 -1 48 -16 13
-23 21 -17 18 13 -7 53 10 53 22 0 4 -18 17 -40 30 -22 13 -38 27 -35 33 4 5
10 7 15 4 5 -3 12 0 16 6 5 8 -1 10 -20 7 l-27 -5 22 23 c12 13 28 24 36 24 7
0 13 5 13 10 0 16 -15 12 -44 -11 -14 -11 -26 -16 -26 -10 0 5 16 22 36 38 20
15 31 29 25 31 -6 2 -18 -2 -27 -8 -26 -22 -28 -1 -3 27 18 20 20 25 7 20 -13
-5 -18 -1 -18 13 0 11 2 20 5 20 3 0 47 -21 98 -46z m65 11 c33 -10 69 -26 78
-36 22 -24 20 -24 -52 4 -57 23 -135 63 -103 54 8 -3 43 -13 77 -22z m62 5 c8
-5 11 -10 5 -10 -5 0 -17 5 -25 10 -8 5 -10 10 -5 10 6 0 17 -5 25 -10z m349
-4 c-2 -2 -44 -22 -94 -45 l-90 -41 35 31 c43 38 86 58 124 59 16 0 27 -2 25
-4z m-275 -45 c31 -34 3 -24 -30 10 -21 23 -23 29 -9 21 11 -5 29 -20 39 -31z
m116 9 c-46 -38 -65 -38 -22 0 18 17 38 30 44 30 7 0 -3 -13 -22 -30z m644 14
c9 -8 16 -21 16 -28 0 -18 -30 -43 -62 -51 -29 -7 -54 -31 -60 -55 -2 -11 10
-16 52 -21 l55 -6 -62 -1 -63 -2 0 34 c0 31 4 36 38 47 48 15 62 27 62 51 0
25 -25 33 -66 20 -38 -11 -48 3 -11 18 35 14 84 11 101 -6z m-480 -31 c-6 -26
-17 -59 -59 -178 -10 -27 -24 -57 -31 -66 -8 -9 -11 -18 -8 -22 3 -3 2 -12 -2
-19 -5 -7 -9 -20 -9 -28 0 -8 -4 -37 -9 -63 -8 -45 -12 -50 -60 -74 -28 -14
-68 -36 -88 -49 -21 -14 -38 -22 -38 -19 0 2 6 24 14 47 8 24 24 77 35 118 12
41 36 120 53 175 17 55 31 106 31 114 0 12 146 90 170 91 4 0 4 -12 1 -27z
m-211 -65 c9 2 17 -1 17 -6 0 -35 -124 -425 -143 -449 -11 -15 -26 -16 -46 -4
-12 8 -10 23 12 93 21 69 32 106 52 178 13 46 49 161 56 178 6 15 13 20 22 15
6 -4 20 -6 30 -5z m-423 -29 c0 -6 15 -25 32 -41 l33 -31 -33 7 c-43 10 -42
-7 3 -36 19 -13 35 -26 35 -30 0 -9 -39 2 -46 13 -7 12 -34 11 -34 -1 0 -5 16
-24 35 -41 43 -39 38 -49 -10 -20 -20 11 -38 21 -41 21 -11 0 -2 -30 18 -55
l21 -28 -24 13 c-62 33 -79 51 -79 84 0 19 7 50 15 70 24 57 75 108 75 75z
m630 -85 c0 -2 -7 -4 -15 -4 -8 0 -15 4 -15 10 0 5 7 7 15 4 8 -4 15 -8 15
-10z m563 -21 c-13 -2 -33 -2 -45 0 -13 2 -3 4 22 4 25 0 35 -2 23 -4z m-105
-19 c110 -6 122 -9 122 -25 0 -16 -8 -19 -49 -19 -78 0 -171 12 -165 21 8 14
-12 17 -153 22 -111 5 -133 3 -133 -9 0 -11 -15 -14 -65 -14 -47 0 -65 4 -65
13 0 8 3 17 8 22 7 7 258 2 500 -11z m-295 -21 c-13 -2 -33 -2 -45 0 -13 2 -3
4 22 4 25 0 35 -2 23 -4z m160 -10 c-13 -2 -33 -2 -45 0 -13 2 -3 4 22 4 25 0
35 -2 23 -4z m152 -33 c119 -7 91 -8 -130 -4 -154 2 -308 4 -343 4 -38 0 -61
4 -57 10 6 9 248 5 530 -10z m-1180 -30 c24 -9 26 -14 21 -43 -7 -39 -6 -41
69 -97 l60 -44 -30 -6 c-17 -3 -60 -4 -96 0 -58 4 -72 10 -113 44 -28 23 -45
44 -42 52 4 10 -3 14 -22 15 -24 2 -24 2 -4 6 33 6 16 23 -24 23 -19 0 -34 4
-34 8 0 5 24 7 54 4 36 -3 56 0 61 8 6 10 0 12 -26 8 -19 -3 -41 -3 -49 0 -8
4 21 11 65 18 44 6 81 12 82 13 1 0 14 -4 28 -9z m-193 -131 c27 -37 90 -71
113 -63 11 5 18 0 22 -14 5 -22 59 -38 93 -27 18 6 19 3 14 -27 -3 -18 -8 -40
-11 -48 -2 -8 -9 -103 -14 -210 -26 -572 -32 -652 -58 -733 -6 -18 -13 -49
-16 -69 -6 -41 -27 -58 -70 -58 -29 0 -75 21 -93 43 -10 12 -8 14 15 10 26 -4
25 -2 -8 16 -33 19 -56 47 -45 58 2 3 16 -3 30 -12 14 -9 31 -15 37 -13 7 2
-4 14 -25 26 -59 35 -65 77 -6 47 18 -9 34 -14 38 -11 6 7 7 6 -32 26 -31 16
-54 45 -44 55 3 4 18 -1 32 -10 14 -9 30 -15 37 -13 6 2 -7 15 -28 28 -22 15
-39 35 -41 48 -3 22 12 30 23 12 8 -14 45 -32 45 -23 0 4 -16 19 -35 33 -19
14 -35 33 -35 43 0 16 3 15 30 -4 43 -33 48 -16 6 21 -20 18 -36 38 -36 46 0
20 10 17 37 -8 13 -12 26 -19 29 -15 4 3 -8 18 -25 32 -22 19 -31 35 -31 58
l0 30 23 -21 c23 -22 47 -29 47 -14 0 4 -14 16 -30 27 -19 13 -30 29 -30 43 0
22 1 22 22 8 40 -28 43 -17 5 22 -29 30 -37 46 -37 75 0 42 9 46 35 17 19 -21
45 -27 45 -10 0 6 -6 10 -13 10 -7 0 -26 14 -42 30 -31 32 -20 40 21 14 13 -9
28 -13 32 -9 4 4 2 10 -5 12 -24 8 -63 45 -63 58 0 11 6 11 31 -2 16 -8 33
-12 36 -9 3 3 -3 9 -13 12 -30 11 -54 36 -54 56 0 17 2 18 30 3 33 -17 40 -18
40 -7 0 4 -16 16 -35 26 -19 11 -35 26 -35 34 0 12 4 12 25 -2 26 -17 55 -21
55 -8 0 4 -15 12 -32 17 -19 6 -34 18 -36 28 -3 16 -1 17 17 5 16 -10 23 -10
33 0 9 9 7 12 -10 12 -14 0 -29 11 -42 32 -22 36 -19 48 7 26 31 -26 43 -30
43 -14 0 9 -5 16 -10 16 -21 0 -70 44 -70 63 0 18 1 17 29 -2 16 -12 34 -21
40 -21 21 0 10 15 -21 31 -34 16 -57 44 -45 55 4 4 17 -2 30 -14 25 -23 47
-29 47 -12 0 6 -5 10 -11 10 -15 0 -69 39 -69 51 0 14 26 11 40 -6 7 -8 22
-15 34 -14 20 0 20 0 1 9 -26 10 -70 58 -62 67 4 3 15 -1 25 -10 23 -21 32
-21 32 -2 0 8 -7 15 -15 15 -12 0 -35 28 -35 44 0 16 22 3 42 -25z m459 -99
c16 0 19 -7 19 -52 0 -29 -7 -91 -15 -138 -9 -47 -24 -150 -35 -230 -11 -80
-24 -176 -29 -215 -6 -38 -13 -99 -15 -135 -20 -252 -38 -370 -58 -370 -6 0
-23 8 -38 17 -35 20 -47 53 -19 53 10 0 19 5 19 10 0 7 -15 9 -37 5 l-38 -5
30 15 c17 8 38 14 48 15 20 0 23 20 3 20 -8 0 -27 -5 -42 -10 -46 -18 -37 -3
13 21 31 15 42 25 31 27 -9 2 -27 -2 -38 -8 -19 -10 -21 -9 -18 6 2 10 17 25
33 34 40 20 39 19 33 25 -3 3 -17 1 -32 -4 -15 -6 -26 -7 -26 -1 0 13 41 40
62 40 9 0 20 5 24 12 5 8 -4 9 -34 5 -36 -6 -40 -5 -35 13 3 11 20 25 39 32
19 7 34 16 34 20 0 11 -18 10 -41 -2 -16 -9 -19 -7 -19 10 0 13 11 24 35 34
43 18 46 30 5 21 -45 -10 -40 20 6 35 23 8 32 16 26 22 -6 6 -17 6 -32 -2 -19
-10 -21 -9 -18 7 2 11 14 19 31 21 15 2 27 8 27 14 0 6 -12 8 -30 5 -22 -5
-30 -3 -30 7 0 8 14 19 30 25 36 12 40 24 5 15 -19 -5 -25 -2 -25 10 0 9 6 16
13 16 17 0 54 27 47 34 -3 3 -18 -1 -33 -9 -26 -13 -26 -13 -21 18 11 67 15
77 28 77 8 0 24 9 37 21 l24 20 -25 -7 c-14 -4 -31 -9 -39 -12 -10 -4 -13 -1
-8 12 4 10 7 33 7 52 0 27 5 37 25 46 14 6 25 15 25 21 0 5 -11 6 -25 3 -37
-9 -32 16 8 34 24 11 28 15 14 18 -10 2 -24 -2 -32 -8 -12 -10 -15 -9 -15 9 0
14 11 28 30 39 36 21 39 35 5 26 l-25 -6 25 50 c26 52 32 82 15 82 -5 0 -10
-7 -10 -15 0 -8 -6 -12 -14 -9 -20 8 -38 -73 -43 -206 -2 -63 -15 -183 -29
-265 -13 -83 -26 -173 -29 -200 -3 -27 -9 -63 -14 -79 -5 -17 -13 -51 -16 -76
-4 -25 -11 -50 -16 -56 -6 -7 -9 -16 -8 -20 5 -18 -24 -134 -32 -134 -12 0
-11 37 0 78 16 54 49 476 57 732 3 69 6 134 8 145 15 95 19 113 24 122 7 10
138 32 160 26 8 -1 22 -3 33 -3z m109 -56 c0 -77 -20 -282 -41 -424 -11 -74
-26 -182 -35 -240 -24 -170 -55 -344 -65 -362 -5 -10 -9 -24 -9 -32 0 -14 -37
-33 -46 -24 -2 2 3 60 10 129 8 68 17 167 20 219 9 138 49 475 62 530 4 14 8
34 10 45 2 11 8 40 13 65 6 25 10 63 11 86 0 48 4 54 42 54 27 0 28 -2 28 -46z
m-542 -1108 c29 -15 38 -15 85 -3 29 8 61 18 72 22 14 6 11 1 -8 -14 -15 -13
-25 -27 -22 -32 9 -13 36 -11 32 2 -3 14 30 35 40 25 4 -4 0 -12 -10 -17 -28
-16 -19 -29 10 -14 23 12 30 12 56 -3 37 -21 77 -79 70 -99 -5 -13 -18 -14
-71 -10 -36 4 -70 11 -76 17 -5 5 -24 10 -41 10 -44 0 -154 39 -192 68 -25 19
-33 32 -33 57 0 42 9 49 34 26 12 -10 36 -26 54 -35z m300 2 c23 -7 42 -18 42
-25 0 -17 8 -16 26 2 9 8 23 15 32 15 12 0 13 -3 4 -12 -7 -7 -12 -18 -12 -26
0 -10 3 -10 16 2 22 23 30 21 77 -24 35 -33 40 -42 31 -57 -7 -11 -26 -19 -47
-21 -43 -4 -117 15 -117 29 0 18 -43 68 -82 95 -36 25 -53 52 -25 40 6 -3 31
-11 55 -18z m-334 -97 c-3 -3 -15 6 -27 18 l-22 24 27 -19 c14 -10 24 -21 22
-23z m251 -63 c13 -5 7 -6 -20 -2 -22 3 -47 10 -55 15 -18 11 46 0 75 -13z
m230 -8 l30 -8 -35 0 c-19 0 -48 4 -65 8 l-30 8 35 0 c19 0 49 -4 65 -8z
m-148 -6 c-3 -3 -12 -4 -19 -1 -8 3 -5 6 6 6 11 1 17 -2 13 -5z"></path>
<path class="node" id="node2" d="M543 2710 c-13 -5 -23 -18 -23 -29 0 -18 5 -20 33 -14 38 7 57 20 57
39 0 16 -33 17 -67 4z"></path>
<path class="node" id="node3" d="M712 2689 c4 -27 63 -48 81 -30 15 15 -9 37 -51 46 -31 6 -33 5 -30
-16z"></path>
<path class="node" id="node4" d="M547 2644 c-13 -13 -7 -24 14 -24 11 0 19 5 17 12 -5 14 -22 21 -31
12z"></path>
<path class="node" id="node5" d="M735 2629 c-4 -6 -5 -13 -2 -16 7 -7 27 6 27 18 0 12 -17 12 -25 -2z"></path>
<path class="node" id="node6" d="M610 2509 c0 -36 19 -59 48 -59 36 0 52 17 52 54 0 16 -3 26 -7 22
-4 -4 -8 -15 -8 -24 0 -12 -9 -17 -30 -17 -23 0 -31 5 -33 23 -4 28 -22 29
-22 1z"></path>
<path class="node" id="node7" d="M640 2356 c0 -22 19 -30 35 -16 22 18 18 30 -10 30 -15 0 -25 -6 -25
-14z"></path>
<path class="node" id="node8" d="M1280 2305 c0 -8 5 -15 10 -15 6 0 10 7 10 15 0 8 -4 15 -10 15 -5 0
-10 -7 -10 -15z"></path>
<path class="node" id="node9" d="M230 931 c0 -14 60 -55 68 -46 7 6 -15 27 -50 46 -12 6 -18 6 -18 0z"></path>
<path class="node" id="node10" d="M625 1080 c-8 -13 15 -13 35 0 12 8 11 10 -7 10 -12 0 -25 -4 -28
-10z"></path>
<path class="node" id="node11" d="M610 960 c-24 -15 -7 -18 25 -4 23 10 25 13 10 13 -11 1 -27 -3 -35
-9z"></path>


</g>
<g transform="translate(0.000000,300.000000) scale(0.100000,-0.100000)" fill="#FFFFFF" stroke="none">

<path class="node" id="node15" d="M550 2930 c-11 -8 -7 -9 15 -4 37 8 45 14 19 14 -10 0 -26 -5 -34
-10z"></path>
<path class="node" id="node16" d="M560 2890 c6 -4 -9 -19 -35 -35 -44 -28 -52 -44 -27 -53 6 -2 17 7
23 21 6 13 28 35 49 49 l39 25 -30 0 c-16 0 -25 -3 -19 -7z"></path>
<path class="node" id="node17" d="M695 2890 c-3 -6 1 -7 9 -4 18 7 21 14 7 14 -6 0 -13 -4 -16 -10z"></path>
<path class="node" id="node18" d="M468 2872 c-16 -9 -28 -20 -28 -24 0 -15 17 -8 40 17 27 29 25 31
-12 7z"></path>
<path class="node" id="node19" d="M594 2871 c-36 -22 -51 -41 -33 -41 12 0 89 49 89 56 0 10 -28 2 -56
-15z"></path>
<path class="node" id="node20" d="M695 2860 c-3 -5 3 -10 14 -10 11 0 23 5 26 10 3 6 -3 10 -14 10 -11
0 -23 -4 -26 -10z"></path>
<path class="node" id="node21" d="M820 2850 c0 -5 5 -10 11 -10 5 0 7 5 4 10 -3 6 -8 10 -11 10 -2 0
-4 -4 -4 -10z"></path>
<path class="node" id="node22" d="M780 2829 c3 -2 18 -15 35 -29 l29 -25 -16 25 c-8 14 -24 27 -34 29
-11 2 -17 2 -14 0z"></path>
<path class="node" id="node23" d="M700 2795 c7 -8 24 -15 39 -15 25 1 25 1 7 15 -11 8 -29 15 -39 15
-16 0 -17 -3 -7 -15z"></path>
<path class="node" id="node24" d="M365 2789 c-11 -17 -2 -18 19 -3 17 12 17 14 4 14 -9 0 -20 -5 -23
-11z"></path>
<path class="node" id="node25" d="M555 2780 c3 -5 13 -10 21 -10 8 0 12 5 9 10 -3 6 -13 10 -21 10 -8
0 -12 -4 -9 -10z"></path>
<path class="node" id="node26" d="M380 2760 c-11 -11 -20 -25 -20 -32 0 -6 1 -9 3 -7 1 2 13 16 26 32
28 31 21 37 -9 7z"></path>
<path class="node" id="node27" d="M460 2755 c-9 -11 -10 -19 -3 -26 8 -8 13 -5 18 11 9 28 2 35 -15 15z"></path>
<path class="node" id="node28" d="M490 2732 c-42 -81 -52 -108 -57 -159 -4 -40 -9 -53 -19 -49 -20 7
-17 -21 5 -71 38 -83 170 -183 243 -183 46 0 104 48 146 119 24 41 28 59 32
167 l5 122 -32 21 c-18 11 -42 21 -54 21 -12 0 -37 9 -56 21 -28 18 -43 20
-87 15 -29 -4 -64 -2 -79 3 -25 10 -29 8 -47 -27z m120 -26 c0 -19 -19 -32
-57 -39 -28 -6 -33 -4 -33 14 0 21 29 37 68 38 12 1 22 -5 22 -13z m180 -22
c23 -22 0 -37 -41 -27 -24 7 -35 16 -37 32 -3 21 -1 22 30 16 18 -4 40 -13 48
-21z m-212 -52 c2 -7 -6 -12 -17 -12 -21 0 -27 11 -14 24 9 9 26 2 31 -12z
m182 -1 c0 -12 -20 -25 -27 -18 -7 7 6 27 18 27 5 0 9 -4 9 -9z m-128 -123 c2
-18 10 -23 33 -23 21 0 30 5 30 17 0 9 4 20 8 24 4 4 7 -6 7 -22 0 -37 -16
-54 -52 -54 -29 0 -48 23 -48 59 0 28 18 27 22 -1z m58 -147 c0 -14 -28 -33
-40 -26 -20 12 -10 35 15 35 14 0 25 -4 25 -9z"></path>
<path class="node" id="node29" d="M720 2755 c7 -8 17 -15 22 -15 6 0 5 7 -2 15 -7 8 -17 15 -22 15 -6
0 -5 -7 2 -15z"></path>
<path class="node" id="node30" d="M331 2744 c0 -11 3 -14 6 -6 3 7 2 16 -1 19 -3 4 -6 -2 -5 -13z"></path>
<path class="node" id="node31" d="M386 2715 c-3 -9 -6 -22 -5 -28 0 -7 5 -1 10 12 5 13 8 26 5 28 -2 2
-6 -3 -10 -12z"></path>
<path class="node" id="node32" d="M1665 2627 c-4 -21 -3 -57 2 -80 l10 -42 8 38 c4 21 3 57 -2 80 l-10
42 -8 -38z"></path>
<path class="node" id="node33" d="M324 2597 c-14 -30 -15 -41 -6 -62 14 -31 58 -32 56 -2 -1 9 -2 29
-3 44 -1 34 -18 19 -23 -22 -4 -26 -5 -27 -13 -11 -5 11 -4 31 3 49 17 44 6
46 -14 4z"></path>
<path class="node" id="node34" d="M1361 2560 c-7 -25 -20 -53 -29 -63 -14 -16 -14 -21 6 -56 12 -21 22
-46 22 -55 0 -21 18 -20 61 1 19 9 50 20 69 24 31 6 32 7 8 8 -30 1 -35 10
-16 29 10 10 8 12 -11 10 -38 -5 -35 16 6 41 21 12 29 20 18 16 -78 -25 -102
-10 -40 26 49 29 44 34 -7 7 -24 -13 -47 -23 -53 -23 -5 0 -12 18 -16 40 l-5
40 -13 -45z"></path>
<path class="node" id="node35" d="M1189 2427 c-46 -29 -102 -65 -124 -79 -34 -22 -54 -27 -136 -31 -52
-2 -103 -8 -113 -14 -16 -9 -15 -11 4 -36 31 -40 13 -67 -44 -67 l-44 0 -16
-51 c-10 -29 -14 -55 -9 -59 4 -4 29 -10 55 -13 45 -6 48 -5 77 30 30 36 31
36 51 18 11 -10 27 -41 36 -70 l17 -52 25 24 c19 18 23 29 19 52 -4 17 -2 33
3 36 6 4 13 -7 16 -24 7 -34 15 -38 34 -16 7 8 9 27 5 47 -6 31 -5 32 10 14 8
-11 15 -24 15 -29 0 -4 4 -5 10 -2 5 3 7 20 4 38 l-6 32 20 -24 c24 -30 43
-20 35 19 -6 33 11 42 20 10 3 -11 10 -20 16 -20 7 0 9 10 5 25 -6 25 10 37
18 13 8 -22 28 3 28 35 1 30 1 31 15 13 8 -11 17 -18 19 -15 62 69 86 104 86
126 0 34 -40 123 -55 123 -7 0 -50 -24 -96 -53z m111 -122 c0 -8 -4 -15 -10
-15 -5 0 -10 7 -10 15 0 8 5 15 10 15 6 0 10 -7 10 -15z"></path>
<path class="node" id="node36" d="M1650 2286 c0 -41 5 -78 10 -81 6 -4 10 23 10 74 0 47 -4 81 -10 81
-6 0 -10 -31 -10 -74z"></path>
<path class="node" id="node37" d="M420 2315 c10 -12 10 -15 -3 -15 -9 0 -19 5 -22 10 -9 15 -25 12 -19
-4 4 -10 -2 -12 -23 -10 -24 4 -25 3 -8 -5 23 -11 14 -14 -34 -11 -28 1 -33
-1 -27 -15 5 -13 2 -16 -12 -13 -10 3 -27 -1 -38 -9 -18 -13 -18 -14 4 -19 33
-9 27 -28 -7 -21 -30 6 -41 -1 -75 -56 l-17 -28 28 7 28 7 -32 -30 c-40 -38
-41 -45 -5 -38 24 6 25 5 7 -6 -38 -22 -62 -68 -30 -55 22 8 18 -12 -5 -24
-24 -13 -28 -55 -5 -46 8 3 15 1 15 -4 0 -6 -5 -10 -10 -10 -6 0 -19 -15 -30
-32 -20 -34 -25 -88 -10 -123 7 -16 9 -12 15 23 10 56 20 45 16 -17 -1 -27 2
-51 6 -54 5 -3 10 9 10 28 1 18 4 38 8 44 14 24 20 8 17 -44 -3 -35 0 -55 7
-55 6 0 11 13 11 29 0 34 9 61 20 61 4 0 5 -22 2 -50 -4 -40 -2 -50 11 -50 9
0 17 13 21 35 4 19 12 37 18 41 8 5 9 1 5 -10 -19 -48 -19 -66 -2 -66 9 0 19
9 22 20 3 11 12 20 20 20 11 0 11 -4 3 -20 -10 -18 -8 -20 18 -20 21 0 31 7
40 28 9 21 11 22 8 5 -3 -17 1 -23 15 -23 10 0 19 6 19 13 1 6 5 31 9 54 5 24
4 40 0 37 -5 -3 -9 -14 -9 -24 0 -21 -16 -35 -24 -21 -10 16 10 54 52 99 l40
43 -39 19 c-21 11 -59 23 -83 26 -40 6 -47 4 -70 -21 -15 -16 -29 -26 -32 -23
-8 9 27 112 42 124 8 6 14 17 14 25 0 14 47 99 74 133 8 10 20 16 27 14 8 -3
1 -17 -18 -38 -31 -37 -63 -108 -62 -138 0 -14 2 -14 10 3 7 15 8 11 4 -16 -5
-36 -5 -37 37 -47 24 -6 61 -20 82 -31 l39 -21 33 38 c18 20 35 53 39 72 14
85 17 91 31 86 8 -3 21 -9 29 -12 26 -11 19 58 -8 84 -29 28 -33 27 -74 -4
-53 -40 -65 -31 -84 66 -9 47 -15 88 -12 93 2 4 -6 7 -18 7 -18 0 -19 -2 -9
-15z"></path>
<path class="node" id="node38" d="M475 2317 c-10 -25 10 -157 24 -157 3 1 19 12 36 25 l29 24 -23 25
c-14 14 -32 43 -41 63 -15 31 -19 35 -25 20z"></path>
<path class="node" id="node39" d="M757 2260 l-18 -30 25 0 c14 0 29 0 33 -1 15 -1 12 16 -5 39 l-17 22
-18 -30z"></path>
<path class="node" id="node40" d="M1508 2283 c-2 -5 -1 -26 3 -48 5 -31 6 -34 8 -12 0 16 6 37 11 48 8
15 7 19 -4 19 -8 0 -16 -3 -18 -7z"></path>
<path class="node" id="node41" d="M565 2259 c4 -13 13 -27 19 -32 39 -26 119 -18 137 15 10 19 9 20 -7
13 -48 -20 -66 -17 -148 23 -4 2 -5 -6 -1 -19z"></path>
<path class="node" id="node42" d="M1299 2253 c-13 -16 -12 -17 4 -4 9 7 17 15 17 17 0 8 -8 3 -21 -13z"></path>
<path class="node" id="node43" d="M652 2161 c29 -38 34 -38 47 -1 l10 30 -40 0 -41 0 24 -29z"></path>
<path class="node" id="node44" d="M1473 2112 c-24 -2 -43 -6 -43 -10 0 -4 59 -6 131 -4 72 2 130 5 128
6 -6 5 -171 11 -216 8z"></path>
<path class="node" id="node45" d="M665 2090 c3 -5 8 -10 11 -10 2 0 4 5 4 10 0 6 -5 10 -11 10 -5 0 -7
-4 -4 -10z"></path>
<path class="node" id="node46" d="M845 2080 c-10 -11 -16 -21 -14 -23 37 -21 89 -46 89 -42 0 13 -41
85 -49 85 -4 0 -16 -9 -26 -20z"></path>
<path class="node" id="node47" d="M590 2050 c0 -14 5 -18 18 -13 13 5 11 0 -7 -20 -25 -28 -23 -49 3
-27 9 6 21 10 27 8 6 -2 -5 -16 -25 -31 -20 -16 -36 -33 -36 -38 0 -6 12 -1
26 10 29 23 44 27 44 11 0 -5 -6 -10 -13 -10 -8 0 -24 -11 -36 -24 l-22 -23
27 5 c19 3 25 1 20 -7 -4 -6 -11 -9 -16 -6 -5 3 -11 1 -15 -4 -3 -6 13 -20 35
-33 22 -13 40 -26 40 -30 0 -12 -40 -29 -53 -22 -6 3 1 -5 17 -18 29 -24 29
-48 1 -48 -9 0 -13 -10 -12 -27 2 -23 -2 -28 -20 -27 -18 0 -20 -3 -12 -18 5
-10 7 -23 4 -28 -8 -14 -38 -13 -53 2 -6 6 -15 8 -19 4 -4 -4 -2 -11 5 -15 7
-4 10 -15 7 -24 -5 -12 -2 -14 14 -10 16 4 20 2 16 -9 -8 -21 87 -89 161 -115
l31 -11 36 107 c36 107 107 351 107 370 0 5 -24 18 -52 29 -29 11 -94 41 -145
66 -51 25 -95 46 -98 46 -3 0 -5 -9 -5 -20z"></path>
<path class="node" id="node48" d="M695 2044 c28 -16 143 -64 153 -64 3 0 -3 8 -12 19 -9 10 -45 26 -78
36 -34 9 -69 19 -77 22 -9 2 -2 -4 14 -13z"></path>
<path class="node" id="node49" d="M800 2040 c8 -5 20 -10 25 -10 6 0 3 5 -5 10 -8 5 -19 10 -25 10 -5
0 -3 -5 5 -10z"></path>
<path class="node" id="node50" d="M1085 2026 c-16 -8 -46 -28 -65 -45 l-35 -31 90 41 c50 23 92 43 94
45 11 10 -58 1 -84 -10z"></path>
<path class="node" id="node51" d="M864 2001 c17 -17 34 -31 39 -31 14 0 -23 39 -48 52 -14 8 -12 2 9
-21z"></path>
<path class="node" id="node52" d="M988 2000 c-43 -38 -24 -38 22 0 19 17 29 30 22 30 -6 0 -26 -13 -44
-30z"></path>
<path class="node" id="node53" d="M1553 2020 c-37 -15 -27 -29 11 -18 41 13 66 5 66 -20 0 -24 -14 -36
-62 -51 -34 -11 -38 -16 -38 -47 l0 -34 63 2 62 1 -55 6 c-42 5 -54 10 -52 21
6 24 31 48 60 55 32 8 62 33 62 51 0 37 -64 55 -117 34z"></path>
<path class="node" id="node54" d="M1084 1971 c-44 -21 -81 -45 -81 -52 0 -8 -14 -59 -31 -114 -17 -55
-41 -134 -53 -175 -11 -41 -27 -94 -35 -118 -8 -23 -14 -45 -14 -47 0 -3 17 5
38 19 20 13 60 35 88 49 48 24 52 29 60 74 5 26 9 55 9 63 0 8 4 21 9 28 4 7
5 16 2 19 -3 4 0 13 8 22 26 31 105 271 89 271 -5 0 -44 -18 -89 -39z"></path>
<path class="node" id="node55" d="M911 1908 c-7 -17 -43 -132 -56 -178 -20 -72 -31 -109 -52 -178 -22
-70 -24 -85 -12 -93 20 -12 35 -11 46 4 19 24 143 414 143 449 0 5 -8 8 -17 6
-10 -1 -24 1 -30 5 -9 5 -16 0 -22 -15z"></path>
<path class="node" id="node56" d="M502 1875 c-29 -34 -52 -91 -52 -131 0 -33 17 -51 79 -84 l24 -13
-21 28 c-20 25 -29 55 -18 55 3 0 21 -10 41 -21 48 -29 53 -19 10 20 -19 17
-35 36 -35 41 0 12 27 13 34 1 7 -11 46 -22 46 -13 0 4 -16 17 -35 30 -45 29
-46 46 -3 36 l33 -7 -33 31 c-17 16 -32 35 -32 41 0 18 -15 13 -38 -14z"></path>
<path class="node" id="node57" d="M1140 1810 c0 -6 7 -10 15 -10 8 0 15 2 15 4 0 2 -7 6 -15 10 -8 3
-15 1 -15 -4z"></path>
<path class="node" id="node58" d="M1688 1783 c12 -2 32 -2 45 0 12 2 2 4 -23 4 -25 0 -35 -2 -22 -4z"></path>
<path class="node" id="node59" d="M1128 1775 c-5 -5 -8 -14 -8 -22 0 -9 18 -13 65 -13 50 0 65 3 65 14
0 12 22 14 133 9 141 -5 161 -8 153 -22 -6 -9 87 -21 165 -21 41 0 49 3 49 19
0 16 -12 19 -122 25 -242 13 -493 18 -500 11z"></path>
<path class="node" id="node60" d="M1288 1743 c12 -2 32 -2 45 0 12 2 2 4 -23 4 -25 0 -35 -2 -22 -4z"></path>
<path class="node" id="node61" d="M1448 1733 c12 -2 32 -2 45 0 12 2 2 4 -23 4 -25 0 -35 -2 -22 -4z"></path>
<path class="node" id="node62" d="M1115 1710 c-4 -6 19 -10 57 -10 35 0 189 -2 343 -4 221 -4 249 -3
130 4 -282 15 -524 19 -530 10z"></path>
<path class="node" id="node63" d="M355 1666 c-44 -7 -73 -14 -65 -18 8 -3 30 -3 49 0 26 4 32 2 26 -8
-5 -8 -25 -11 -61 -8 -30 3 -54 1 -54 -4 0 -4 15 -8 34 -8 40 0 57 -17 24 -23
-20 -4 -20 -4 4 -6 19 -1 26 -5 22 -15 -3 -8 14 -29 42 -52 41 -34 55 -40 113
-44 36 -4 79 -3 96 0 l30 6 -60 44 c-75 56 -76 58 -69 97 5 29 3 34 -21 43
-14 5 -27 9 -28 9 -1 -1 -38 -7 -82 -13z"></path>
<path class="node" id="node64" d="M230 1564 c0 -16 23 -44 35 -44 8 0 15 -7 15 -15 0 -19 -9 -19 -32 2
-10 9 -21 13 -25 10 -8 -9 36 -57 62 -67 19 -9 19 -9 -1 -9 -12 -1 -27 6 -34
14 -14 17 -40 20 -40 6 0 -12 54 -51 69 -51 6 0 11 -4 11 -10 0 -17 -22 -11
-47 12 -13 12 -26 18 -30 14 -12 -11 11 -39 45 -55 31 -16 42 -31 21 -31 -6 0
-24 9 -40 21 -28 19 -29 20 -29 2 0 -19 49 -63 70 -63 5 0 10 -7 10 -16 0 -16
-12 -12 -43 14 -26 22 -29 10 -7 -26 13 -21 28 -32 42 -32 17 0 19 -3 10 -12
-10 -10 -17 -10 -33 0 -18 12 -20 11 -17 -5 2 -10 17 -22 36 -28 17 -5 32 -13
32 -17 0 -13 -29 -9 -55 8 -21 14 -25 14 -25 2 0 -8 16 -23 35 -34 19 -10 35
-22 35 -26 0 -11 -7 -10 -40 7 -28 15 -30 14 -30 -3 0 -20 24 -45 54 -56 10
-3 16 -9 13 -12 -3 -3 -20 1 -36 9 -25 13 -31 13 -31 2 0 -13 39 -50 63 -58 7
-2 9 -8 5 -12 -4 -4 -19 0 -32 9 -41 26 -52 18 -21 -14 16 -16 35 -30 42 -30
7 0 13 -4 13 -10 0 -17 -26 -11 -45 10 -26 29 -35 25 -35 -17 0 -29 8 -45 37
-75 38 -39 35 -50 -5 -22 -21 14 -22 14 -22 -8 0 -14 11 -30 30 -43 16 -11 30
-23 30 -27 0 -15 -24 -8 -47 14 l-23 21 0 -30 c0 -23 9 -39 31 -58 17 -14 29
-29 25 -32 -3 -4 -16 3 -29 15 -27 25 -37 28 -37 8 0 -8 16 -28 36 -46 42 -37
37 -54 -6 -21 -27 19 -30 20 -30 4 0 -10 16 -29 35 -43 19 -14 35 -29 35 -33
0 -9 -37 9 -45 23 -11 18 -26 10 -23 -12 2 -13 19 -33 41 -48 21 -13 34 -26
28 -28 -7 -2 -23 4 -37 13 -14 9 -29 14 -32 10 -10 -10 13 -39 44 -55 39 -20
38 -19 32 -26 -4 -3 -20 2 -38 11 -59 30 -53 -12 6 -47 21 -12 32 -24 25 -26
-6 -2 -23 4 -37 13 -14 9 -28 15 -30 12 -11 -11 12 -39 45 -58 33 -18 34 -20
8 -16 -23 4 -25 2 -15 -10 18 -22 64 -43 93 -43 43 0 64 17 70 58 3 20 10 51
16 69 26 81 32 161 58 733 5 107 12 202 14 210 3 8 8 30 11 48 5 30 4 33 -14
27 -34 -11 -88 5 -93 27 -4 14 -11 19 -22 14 -23 -8 -86 26 -113 63 -20 28
-42 41 -42 25z m55 -657 c11 -9 17 -18 13 -22 -8 -9 -68 32 -68 46 0 10 20 1
55 -24z"></path>
<path class="node" id="node65" d="M615 1437 c-38 -6 -73 -15 -77 -20 -5 -9 -9 -27 -24 -122 -2 -11 -5
-76 -8 -145 -8 -256 -41 -678 -57 -732 -11 -41 -12 -78 0 -78 8 0 37 116 32
134 -1 4 2 13 8 20 5 6 12 31 16 56 3 25 11 59 16 76 5 16 11 52 14 79 3 27
16 117 29 200 14 82 27 202 29 265 5 133 23 214 43 206 8 -3 14 1 14 9 0 8 5
15 10 15 17 0 11 -30 -15 -82 l-25 -50 25 6 c34 9 31 -5 -5 -26 -19 -11 -30
-25 -30 -39 0 -18 3 -19 15 -9 8 6 22 10 32 8 14 -3 10 -7 -14 -18 -40 -18
-45 -43 -8 -34 14 3 25 2 25 -3 0 -6 -11 -15 -25 -21 -20 -9 -25 -19 -25 -46
0 -19 -3 -42 -7 -52 -5 -13 -2 -16 8 -12 8 3 25 8 39 12 l25 7 -24 -20 c-13
-12 -29 -21 -37 -21 -13 0 -17 -10 -28 -77 -5 -31 -5 -31 21 -18 15 8 30 12
33 9 7 -7 -30 -34 -47 -34 -7 0 -13 -7 -13 -16 0 -12 6 -15 25 -10 35 9 31 -3
-5 -15 -16 -6 -30 -17 -30 -25 0 -10 8 -12 30 -7 18 3 30 1 30 -5 0 -6 -12
-12 -27 -14 -17 -2 -29 -10 -31 -21 -3 -16 -1 -17 18 -7 15 8 26 8 32 2 6 -6
-3 -14 -26 -22 -46 -15 -51 -45 -6 -35 41 9 38 -3 -5 -21 -24 -10 -35 -21 -35
-34 0 -17 3 -19 19 -10 23 12 41 13 41 2 0 -4 -15 -13 -34 -20 -19 -7 -36 -21
-39 -32 -5 -18 -1 -19 35 -13 30 4 39 3 34 -5 -4 -7 -15 -12 -24 -12 -21 0
-62 -27 -62 -40 0 -6 11 -5 26 1 15 5 29 7 32 4 6 -6 7 -5 -33 -25 -16 -9 -31
-24 -33 -34 -3 -15 -1 -16 18 -6 11 6 29 10 38 8 11 -2 0 -12 -31 -27 -50 -24
-59 -39 -13 -21 15 5 34 10 42 10 20 0 17 -20 -3 -20 -10 -1 -31 -7 -48 -15
l-30 -15 38 5 c22 4 37 2 37 -5 0 -5 -9 -10 -19 -10 -28 0 -16 -33 19 -53 15
-9 32 -17 38 -17 20 0 38 118 58 370 2 36 9 97 15 135 5 39 18 135 29 215 11
80 26 183 35 230 8 47 15 109 15 138 0 45 -3 52 -19 52 -11 0 -25 2 -33 3 -7
2 -44 -1 -83 -6z m45 -357 c-20 -13 -43 -13 -35 0 3 6 16 10 28 10 18 0 19 -2
7 -10z m-25 -124 c-16 -7 -32 -11 -35 -9 -8 7 24 23 45 22 15 0 13 -3 -10 -13z"></path>
<path class="node" id="node66" d="M777 1423 c-4 -3 -7 -25 -7 -47 -1 -23 -5 -61 -11 -86 -5 -25 -11
-54 -13 -65 -2 -11 -6 -31 -10 -45 -13 -55 -53 -392 -62 -530 -3 -52 -12 -151
-20 -219 -7 -69 -12 -127 -10 -129 9 -9 46 10 46 24 0 8 4 22 9 32 10 18 41
192 65 362 9 58 24 166 35 240 21 142 41 347 41 424 0 44 -1 46 -28 46 -16 0
-32 -3 -35 -7z"></path>
<path class="node" id="node67" d="M217 323 c-4 -3 -7 -21 -7 -38 0 -25 8 -38 33 -57 38 -29 148 -68
192 -68 17 0 36 -5 41 -10 6 -6 40 -13 76 -17 53 -4 66 -3 71 10 7 20 -33 78
-70 99 -26 15 -33 15 -56 3 -29 -15 -38 -2 -10 14 10 5 14 13 10 17 -10 10
-43 -11 -40 -25 4 -13 -23 -15 -32 -2 -3 5 7 19 22 32 19 15 22 20 8 14 -11
-4 -43 -14 -72 -22 -47 -12 -56 -12 -85 3 -18 9 -42 25 -54 35 -11 11 -24 16
-27 12z"></path>
<path class="node" id="node68" d="M530 292 c0 -5 17 -21 38 -36 39 -27 82 -77 82 -95 0 -14 74 -33 117
-29 21 2 40 10 47 21 9 15 4 24 -31 57 -47 45 -55 47 -77 24 -13 -12 -16 -12
-16 -2 0 8 5 19 12 26 9 9 8 12 -4 12 -9 0 -23 -7 -32 -15 -18 -18 -26 -19
-26 -2 0 7 -19 18 -42 25 -24 7 -49 15 -55 18 -7 3 -13 1 -13 -4z"></path>
<path class="node" id="node69" d="M237 199 c12 -12 24 -21 27 -18 2 2 -8 13 -22 23 l-27 19 22 -24z"></path>
<path class="node" id="node70" d="M440 131 c8 -5 33 -12 55 -15 27 -4 33 -3 20 2 -29 13 -93 24 -75 13z"></path>
<path class="node" id="node71" d="M675 110 c17 -4 46 -8 65 -8 l35 0 -30 8 c-16 4 -46 8 -65 8 l-35 0
30 -8z"></path>
<path class="node" id="node72" d="M578 103 c7 -3 16 -2 19 1 4 3 -2 6 -13 5 -11 0 -14 -3 -6 -6z"></path>
</g>
</svg>